Coordinates
version=1
nRows=26
nColumns=24
inDegrees=yes

Units are S.I. units (second, meters, Newtons, ...)
Angles are in degrees.

endheader
time	pelvis_tilt	pelvis_list	pelvis_rotation	pelvis_tx	pelvis_ty	pelvis_tz	hip_flexion_r	hip_adduction_r	hip_rotation_r	knee_angle_r	ankle_angle_r	subtalar_angle_r	mtp_angle_r	hip_flexion_l	hip_adduction_l	hip_rotation_l	knee_angle_l	ankle_angle_l	subtalar_angle_l	mtp_angle_l	lumbar_extension	lumbar_bending	lumbar_rotation
      4.82000000	      6.26649939	     -1.23885006	      8.62128320	     -1.76479494	      0.91065788	      0.14755145	      0.78233320	      6.06100505	     -5.74822533	     -8.88305835	     13.59772709	     -3.97095158	      0.00000000	     15.72726355	      1.01069936	      0.43046857	    -67.44461754	      4.10547678	     -6.74478044	      0.00000000	    -25.36439102	      3.35698136	     -4.55559838
      4.83000000	      6.09633676	     -1.13737963	      8.18518939	     -1.75525229	      0.91113134	      0.14826716	      0.04154328	      6.07602754	     -5.19844406	     -8.40358355	     13.86657346	     -4.00632919	      0.00000000	     16.99458200	      1.19866834	      0.03466767	    -66.46053067	      5.03442525	     -6.39468717	      0.00000000	    -25.36079339	      3.01507984	     -4.16625420
      4.84000000	      5.94030414	     -1.03603522	      7.77012506	     -1.74573701	      0.91147611	      0.14883724	     -0.69432707	      6.06629117	     -4.72697641	     -7.96216022	     14.22611679	     -3.96951960	      0.00000000	     18.13956832	      1.40181911	     -0.28539697	    -65.14668775	      5.78882752	     -6.13790468	      0.00000000	    -25.39393887	      2.71783892	     -3.81282212
      4.85000000	      5.83553880	     -1.00412275	      7.40295395	     -1.73624860	      0.91167144	      0.14926879	     -1.49871247	      6.12921449	     -4.17536734	     -7.47710373	     14.42877443	     -4.13201234	      0.00000000	     19.15711120	      1.51716902	     -0.53104593	    -63.57731329	      6.68974179	     -5.67769539	      0.00000000	    -25.50856739	      2.54268450	     -3.55818085
      4.86000000	      5.68800647	     -0.95094205	      7.00342680	     -1.72675923	      0.91169437	      0.14958658	     -2.20227513	      6.12696119	     -3.74331194	     -7.10357306	     14.82292610	     -4.04448698	      0.00000000	     20.08145979	      1.68043462	     -0.73108666	    -61.65263278	      7.26120982	     -5.52125562	      0.00000000	    -25.59599013	      2.35731467	     -3.30430185
      4.87000000	      5.59008995	     -0.93476712	      6.60948648	     -1.71724300	      0.91161958	      0.14979485	     -2.94044240	      6.15273084	     -3.31007616	     -6.76231653	     15.19486130	     -3.97692262	      0.00000000	     20.82901821	      1.80711069	     -0.84581448	    -59.41977889	      7.83278410	     -5.31212774	      0.00000000	    -25.74827196	      2.23300661	     -3.02899151
      4.88000000	      5.52629901	     -0.93649652	      6.21404202	     -1.70769989	      0.91145290	      0.14988755	     -3.70190198	      6.18476217	     -2.82461731	     -6.45293442	     15.50788514	     -3.94709121	      0.00000000	     21.39522308	      1.93527302	     -0.85416624	    -56.85226915	      8.28199440	     -5.24861416	      0.00000000	    -25.95165847	      2.15334642	     -2.74132217
      4.89000000	      5.45381854	     -0.95079970	      5.80764655	     -1.69807824	      0.91113108	      0.14990111	     -4.44290830	      6.21177442	     -2.34187516	     -6.16706179	     15.84266715	     -3.99298094	      0.00000000	     21.81225741	      2.05673534	     -0.79034387	    -53.93599674	      8.50919435	     -5.56658270	      0.00000000	    -26.12940589	      2.08907005	     -2.44615815
      4.90000000	      5.34846229	     -0.99279167	      5.38216648	     -1.68840477	      0.91063614	      0.14985519	     -5.11025587	      6.24677485	     -1.85289180	     -5.96026731	     16.20912376	     -3.99047098	      0.00000000	     22.09908353	      2.16618976	     -0.60936899	    -50.67183133	      8.48798781	     -6.19201721	      0.00000000	    -26.25863317	      2.04896664	     -2.08864840
      4.91000000	      5.24071043	     -1.06442692	      4.95988422	     -1.67863336	      0.90999165	      0.14973746	     -5.76217674	      6.30101128	     -1.37026514	     -5.78346998	     16.58443956	     -4.04566536	      0.00000000	     22.21160173	      2.25252071	     -0.29520042	    -47.05737201	      8.20118093	     -7.24101508	      0.00000000	    -26.35685451	      2.04478138	     -1.69195858
      4.92000000	      5.11918095	     -1.18326715	      4.52120882	     -1.66874162	      0.90918570	      0.14959995	     -6.38769626	      6.39324055	     -0.85052892	     -5.64125445	     16.94641723	     -4.11105984	      0.00000000	     22.15522206	      2.27781846	      0.15004154	    -43.09932720	      7.64527040	     -8.64626245	      0.00000000	    -26.40032169	      2.07463299	     -1.24391197
      4.93000000	      4.98354217	     -1.36579032	      4.07214269	     -1.65871603	      0.90820132	      0.14942708	     -6.98797641	      6.54048382	     -0.29879448	     -5.53209060	     17.29667488	     -4.19913317	      0.00000000	     21.93569115	      2.21171556	      0.73634989	    -38.82577393	      6.84581484	    -10.29754908	      0.00000000	    -26.38526374	      2.16929339	     -0.72644478
      4.94000000	      4.83141927	     -1.63533127	      3.60445139	     -1.64853610	      0.90701445	      0.14925419	     -7.56496849	      6.76856316	      0.29403077	     -5.44995447	     17.63732769	     -4.30794362	      0.00000000	     21.57387058	      2.00488978	      1.45046129	    -34.29088986	      5.87486509	    -12.01289392	      0.00000000	    -26.30289615	      2.34396587	     -0.13005506
      4.95000000	      4.66372173	     -2.00561546	      3.11032467	     -1.63818604	      0.90561896	      0.14910018	     -8.12574176	      7.09085134	      0.92889111	     -5.39051121	     17.96148593	     -4.42205146	      0.00000000	     21.09794147	      1.61900168	      2.25385426	    -29.56608646	      4.82669685	    -13.53743163	      0.00000000	    -26.15657522	      2.61162152	      0.55718336
      4.96000000	      4.47955728	     -2.49192153	      2.58711213	     -1.62766906	      0.90400609	      0.14898262	     -8.67710899	      7.52208243	      1.60655544	     -5.34445375	     18.26871296	     -4.53851227	      0.00000000	     20.55624372	      1.02169397	      3.09799568	    -24.75506096	      3.81104276	    -14.61379897	      0.00000000	    -25.95049516	      2.98702218	      1.34081013
      4.97000000	      4.28844065	     -3.09103362	      2.02926019	     -1.61698160	      0.90220606	      0.14891766	     -9.23713882	      8.05788690	      2.31438750	     -5.30746043	     18.55321187	     -4.63456978	      0.00000000	     19.99169107	      0.20379107	      3.87009004	    -19.97935720	      2.94169368	    -14.95541736	      0.00000000	    -25.70841453	      3.46645730	      2.21388645
      4.98000000	      4.09594197	     -3.77013291	      1.43286686	     -1.60612841	      0.90026479	      0.14891363	     -9.81248662	      8.65930152	      3.01039849	     -5.28768241	     18.83383039	     -4.66592357	      0.00000000	     19.45217703	     -0.79843857	      4.39511610	    -15.37424025	      2.31166410	    -14.30102972	      0.00000000	    -25.44757523	      4.01245925	      3.16739347
      4.99000000	      3.88768051	     -4.47629020	      0.77235781	     -1.59510220	      0.89821800	      0.14898643	    -10.37471406	      9.26032210	      3.62863752	     -5.32013327	     19.17289342	     -4.52579846	      0.00000000	     18.95660421	     -1.89564378	      4.66081842	    -11.02859910	      1.82236663	    -12.83071129	      0.00000000	    -25.15790021	      4.55060539	      4.19244520
      5.00000000	      3.75654633	     -5.20427755	      0.11485344	     -1.58395655	      0.89623980	      0.14907249	    -11.07388379	      9.87047979	      4.34169640	     -5.30805124	     19.33671190	     -4.53921497	      0.00000000	     18.53129304	     -3.05348364	      4.24506543	     -7.22714169	      1.94046867	     -9.77813273	      0.00000000	    -24.97109448	      5.09857920	      5.20320339
      5.01000000	      3.64506919	     -5.86294513	     -0.56410293	     -1.57268111	      0.89433412	      0.14912191	    -11.78554819	     10.37544400	      4.96213348	     -5.36797487	     19.55627149	     -4.37541304	      0.00000000	     18.14717768	     -4.10392798	      3.54717291	     -3.89143075	      2.01368363	     -6.27332632	      0.00000000	    -24.80797656	      5.55798792	      6.18536865
      5.02000000	      3.56532478	     -6.43310963	     -1.23342083	     -1.56131091	      0.89255158	      0.14907969	    -12.50842173	     10.75815159	      5.48373422	     -5.50532584	     19.82118340	     -4.11632127	      0.00000000	     17.78080013	     -5.00072920	      2.82676766	     -1.06020927	      1.99122220	     -2.77532991	      0.00000000	    -24.68875392	      5.91941186	      7.09869781
      5.03000000	      3.55232891	     -6.91486081	     -1.85606164	     -1.54983196	      0.89095260	      0.14892729	    -13.27690982	     11.02583821	      5.91291461	     -5.71618361	     20.02165593	     -3.73388372	      0.00000000	     17.35715346	     -5.74514355	      2.42423428	      1.28232328	      1.82502748	      0.08578657	      0.00000000	    -24.63288030	      6.18377653	      7.89555792
      5.04000000	      3.56688391	     -7.30094679	     -2.42632702	     -1.53828499	      0.88950217	      0.14866037	    -14.00201351	     11.17868676	      6.26891582	     -6.07061276	     20.29616130	     -3.30836412	      0.00000000	     16.94861765	     -6.34434668	      2.30525859	      3.05273526	      1.61570832	      2.12432624	      0.00000000	    -24.59537515	      6.34757123	      8.57811371
      5.05000000	      3.63622346	     -7.57662841	     -2.91848363	     -1.52662923	      0.88825469	      0.14826338	    -14.73691599	     11.21052905	      6.66101913	     -6.51754870	     20.48261492	     -2.94553550	      0.00000000	     16.52133938	     -6.78923590	      2.54721517	      4.23750295	      1.41036464	      3.01889612	      0.00000000	    -24.58241607	      6.39939162	      9.11992670
      5.06000000	      3.77170313	     -7.71193907	     -3.30099659	     -1.51491819	      0.88729608	      0.14766213	    -15.42818335	     11.09925479	      6.90927798	     -7.14411096	     20.65515556	     -2.53199624	      0.00000000	     16.19054206	     -7.01093827	      2.54517888	      4.63763744	      1.53423170	      3.54519962	      0.00000000	    -24.62140030	      6.33026730	      9.44893776
      5.07000000	      3.93645478	     -7.70072221	     -3.57735645	     -1.50311173	      0.88659639	      0.14686201	    -15.98854656	     10.84265918	      6.81642730	     -8.02590603	     20.89169855	     -1.82610399	      0.00000000	     15.99733402	     -7.00053347	      2.26018841	      4.28428401	      1.97307781	      3.72607890	      0.00000000	    -24.64658731	      6.12992425	      9.60844222
